<?xml version="1.0" standalone="no"?>
<!DOCTYPE svg PUBLIC "-//W3C//DTD SVG 20010904//EN"
 "http://www.w3.org/TR/2001/REC-SVG-20010904/DTD/svg10.dtd">
<svg version="1.0" xmlns="http://www.w3.org/2000/svg"
 width="225.000000pt" height="225.000000pt" viewBox="0 0 225.000000 225.000000"
 preserveAspectRatio="xMidYMid meet">
<metadata>
Created by potrace 1.10, written by Peter Selinger 2001-2011
</metadata>
<g transform="translate(0.000000,225.000000) scale(0.050000,-0.050000)"
fill="#ffffff" stroke="none">
<path d="M688 3532 c-70 -31 -168 -147 -168 -199 0 -54 115 -267 187 -349 36
-41 100 -128 141 -194 255 -409 320 -469 595 -561 285 -95 402 -225 356 -394
-30 -108 -63 -127 -175 -98 -111 28 -648 28 -723 0 -255 -96 -332 -399 -148
-580 l89 -87 254 -3 c251 -4 254 -4 294 -58 166 -225 260 -268 510 -236 83 10
294 14 470 7 395 -14 429 -2 580 208 l40 56 250 0 c295 0 373 31 478 189 200
301 -139 677 -434 482 -101 -67 -110 -67 -190 -8 -39 29 -107 53 -174 62 -251
31 -210 264 69 392 67 30 180 82 251 114 178 82 284 197 491 535 40 66 101
151 134 189 34 38 88 127 121 198 l60 128 -37 69 c-100 186 -183 190 -689 36
-423 -129 -485 -163 -710 -389 -159 -161 -197 -180 -273 -140 -29 16 -67 15
-137 -3 l-97 -25 -180 179 c-222 223 -289 259 -713 385 -419 124 -445 129
-522 95z m779 -383 l136 -39 334 -375 c183 -206 338 -374 343 -374 6 1 62 63
126 138 64 76 177 204 250 285 74 81 169 187 211 234 74 83 90 90 461 203 211
64 423 130 472 147 117 40 118 45 -25 -158 -124 -177 -126 -178 -255 -215
-380 -110 -396 -116 -427 -163 -30 -46 -23 -45 238 38 148 47 269 82 269 78 0
-12 -147 -216 -164 -229 -8 -6 -83 -28 -167 -49 -98 -24 -158 -50 -171 -74
-25 -46 -13 -45 139 6 145 49 163 43 105 -40 -30 -41 -74 -68 -147 -89 -58
-17 -176 -50 -262 -75 l-157 -45 -136 -202 -135 -203 35 -69 c19 -38 41 -90
49 -115 l15 -47 -83 52 c-96 61 -99 60 -174 -59 -71 -111 -69 -112 -147 10
-75 117 -61 113 -160 50 -104 -65 -108 -64 -63 25 75 148 74 148 -68 361
l-133 198 -263 74 c-244 69 -266 79 -308 143 -54 82 -52 83 131 20 79 -27 144
-42 144 -33 0 35 -76 79 -190 111 -66 18 -134 37 -152 43 -31 9 -191 223 -176
236 4 3 123 -32 263 -78 140 -47 255 -79 254 -72 -2 51 -83 92 -317 159 l-262
76 -120 172 c-66 95 -120 176 -120 181 0 4 151 -39 335 -95 184 -57 397 -121
472 -142z m883 -489 l58 -60 -68 -70 -68 -70 -66 64 -66 64 64 66 c78 80 75
80 146 6z m-610 -1184 c0 71 6 84 40 84 37 0 40 -13 40 -184 l0 -185 -121 120
-122 119 6 -90 c5 -78 1 -90 -33 -90 -37 0 -40 15 -44 188 l-4 189 119 -118
119 -118 0 85z m781 -76 c6 0 7 36 2 80 -6 70 -2 80 33 80 38 0 42 -14 48
-180 7 -213 8 -212 -122 -66 l-102 114 0 -94 c0 -81 -6 -94 -40 -94 -37 0 -40
13 -40 184 l0 185 106 -105 c58 -57 110 -104 115 -104z m539 34 l0 -104 100 7
c106 7 112 3 79 -58 -17 -32 -42 -39 -140 -39 l-119 0 0 171 c0 164 1 170 40
149 32 -17 40 -42 40 -126z m-1924 91 c-5 -26 -30 -37 -96 -41 -137 -10 -148
-44 -14 -44 131 0 158 -60 71 -154 -66 -69 -319 -71 -272 -2 23 36 45 44 110
39 45 -3 87 4 94 16 9 14 -24 21 -98 21 -128 0 -155 61 -68 154 58 61 285 70
273 11z m340 0 c-5 -28 -31 -36 -121 -41 -147 -8 -151 -44 -5 -44 61 0 110 -4
110 -8 0 -53 -33 -72 -122 -72 -57 0 -98 -9 -98 -22 0 -14 43 -19 120 -15 119
7 138 -4 103 -59 -12 -18 -57 -24 -153 -20 l-137 6 -3 155 -2 155 157 0 c140
0 157 -4 151 -35z m680 0 c-4 -21 -28 -38 -61 -41 -52 -6 -55 -12 -55 -115 0
-60 -4 -109 -8 -109 -5 0 -23 -5 -40 -12 -27 -10 -32 7 -32 110 l0 122 -60 0
c-47 0 -60 9 -60 40 0 37 13 40 161 40 143 0 161 -4 155 -35z m104 -125 c0
-147 -3 -160 -40 -160 -37 0 -40 13 -40 160 0 147 3 160 40 160 37 0 40 -13
40 -160z m700 152 c0 -54 -33 -72 -132 -72 -59 0 -108 -9 -108 -20 0 -11 50
-20 111 -20 104 0 109 -2 89 -40 -17 -31 -42 -40 -111 -40 -52 0 -89 -9 -89
-22 0 -15 40 -20 120 -14 127 9 135 5 93 -53 -23 -32 -44 -35 -160 -22 l-133
14 0 149 0 148 160 0 c88 0 160 -4 160 -8z m640 0 c0 -53 -33 -72 -121 -72
-53 0 -102 -9 -109 -20 -8 -12 33 -20 109 -20 140 0 167 -56 72 -151 -49 -49
-291 -76 -291 -33 0 38 54 64 133 64 46 0 90 9 97 20 8 12 -30 20 -99 20
l-111 0 0 63 c0 104 47 137 193 137 70 0 127 -4 127 -8z m-1851 -470 c-10 -10
-41 -23 -69 -28 -49 -8 -49 -9 5 -11 30 -2 55 -11 55 -22 0 -10 -25 -22 -55
-27 -30 -4 -1 -8 65 -8 66 0 95 4 65 8 -96 15 -54 106 49 106 72 0 73 -39 1
-43 l-55 -3 55 -8 c30 -5 55 -19 55 -32 -1 -57 -35 -71 -175 -72 l-145 0 0 79
0 79 84 0 c51 0 77 -7 65 -18z m331 -8 c0 -30 -39 -74 -66 -74 -10 0 -13 14
-7 30 7 17 3 30 -8 30 -10 0 -19 -27 -19 -60 0 -33 -9 -60 -20 -60 -11 0 -20
36 -20 80 0 78 2 80 70 80 44 0 70 -10 70 -26z m331 5 c7 -11 2 -33 -10 -48
-16 -19 -16 -31 -2 -40 12 -8 21 -28 21 -46 0 -25 -10 -22 -51 16 -27 26 -46
59 -40 73 5 14 0 26 -12 26 -12 0 -18 -22 -12 -50 11 -56 -20 -90 -45 -50 -11
17 -19 18 -29 2 -35 -57 -131 -25 -131 45 0 36 6 72 13 80 22 21 284 15 298
-8z m166 -5 c-18 -14 -36 -47 -40 -73 -4 -26 -19 -52 -35 -57 -20 -7 -25 6
-18 53 6 44 1 63 -17 63 -15 0 -27 9 -27 20 0 11 38 20 85 19 73 0 80 -4 52
-25z m192 8 c-10 -10 -41 -23 -69 -28 -48 -8 -48 -9 6 -11 95 -5 67 -91 -31
-99 -43 -4 -75 3 -75 15 0 11 25 22 55 24 l55 3 -55 8 c-105 16 -51 106 63
106 43 0 63 -7 51 -18z"/>
<path d="M2140 1018 c0 -48 47 -42 56 9 4 19 -6 33 -25 33 -18 0 -31 -17 -31
-42z"/>
</g>
</svg>
